<svg width="15" height="15" viewBox="0 0 15 15" fill="none" xmlns="http://www.w3.org/2000/svg">
<path fill-rule="evenodd" clip-rule="evenodd" d="M0.292969 13.0208C-0.0976562 13.4114 -0.0976562 14.0445 0.292969 14.4351C0.683594 14.8256 1.31641 14.8256 1.70703 14.4351L7.36426 8.77786L13.0215 14.435C13.4121 14.8256 14.0449 14.8256 14.4355 14.435C14.8262 14.0445 14.8262 13.4113 14.4355 13.0208L8.77832 7.36368L14.4355 1.70706C14.8262 1.31656 14.8262 0.68338 14.4355 0.292877C14.0449 -0.0976257 13.4111 -0.0976257 13.0205 0.292877L7.36426 5.94925L1.70801 0.292877C1.31738 -0.0976257 0.683594 -0.0976257 0.293945 0.292877C-0.0966797 0.68338 -0.0966797 1.31656 0.293945 1.70706L5.9502 7.36343L0.292969 13.0208Z" fill="gold"/>
</svg>
