<svg width="20" height="12" viewBox="0 0 20 12" fill="none" xmlns="http://www.w3.org/2000/svg">
<path fill-rule="evenodd" clip-rule="evenodd" d="M0 1C0 0.447715 0.447715 0 1 0H19C19.5523 0 20 0.447715 20 1C20 1.55228 19.5523 2 19 2H1C0.447715 2 0 1.55228 0 1ZM0 6C0 5.44772 0.447715 5 1 5H19C19.5523 5 20 5.44772 20 6C20 6.55228 19.5523 7 19 7H1C0.447715 7 0 6.55228 0 6ZM20 11C20 10.4477 19.5523 10 19 10H1C0.447715 10 0 10.4477 0 11C0 11.5523 0.447715 12 1 12H19C19.5523 12 20 11.5523 20 11Z" fill="gold"/>
</svg>
